<?xml version="1.0" standalone="no"?>
<!DOCTYPE svg PUBLIC "-//W3C//DTD SVG 20010904//EN"
 "http://www.w3.org/TR/2001/REC-SVG-20010904/DTD/svg10.dtd">
<svg version="1.0" xmlns="http://www.w3.org/2000/svg"
 width="512.000000pt" height="512.000000pt" viewBox="0 0 512.000000 512.000000"
 preserveAspectRatio="xMidYMid meet">

<g transform="translate(0.000000,512.000000) scale(0.100000,-0.100000)"
fill="#000000" stroke="none">
<path d="M1090 4700 c-267 -34 -518 -164 -725 -374 -421 -430 -480 -1102 -159
-1820 364 -815 1164 -1558 2149 -1995 88 -39 171 -77 185 -84 22 -12 35 -9
119 25 406 168 836 425 1191 712 154 125 426 390 551 536 376 444 618 929 695
1396 25 149 25 433 1 559 -63 319 -205 567 -437 759 -205 171 -406 259 -650
287 -414 47 -940 -180 -1377 -595 l-73 -68 -80 76 c-314 295 -677 498 -1011
566 -114 24 -284 33 -379 20z"/>
</g>
</svg>
